<mxfile host="app.diagrams.net" modified="2020-10-15T11:31:24.194Z" agent="5.0 (X11)" etag="SGePnu1ivlcC5uS7dWy8" version="13.8.0" type="github">
  <diagram id="1nml_gzDPzm3lQDvl64V" name="Page-1">
    <mxGraphModel dx="1422" dy="703" grid="1" gridSize="10" guides="1" tooltips="1" connect="1" arrows="1" fold="1" page="1" pageScale="1" pageWidth="850" pageHeight="1100" math="0" shadow="0">
      <root>
        <mxCell id="0" />
        <mxCell id="1" parent="0" />
        <mxCell id="A88WUTj5RPN39O8uvwz5-4" style="edgeStyle=orthogonalEdgeStyle;rounded=0;orthogonalLoop=1;jettySize=auto;html=1;entryX=0.5;entryY=0;entryDx=0;entryDy=0;" edge="1" parent="1" source="A88WUTj5RPN39O8uvwz5-1" target="A88WUTj5RPN39O8uvwz5-3">
          <mxGeometry relative="1" as="geometry" />
        </mxCell>
        <mxCell id="A88WUTj5RPN39O8uvwz5-1" value="Kafka " style="rounded=0;whiteSpace=wrap;html=1;" vertex="1" parent="1">
          <mxGeometry x="365" y="30" width="120" height="60" as="geometry" />
        </mxCell>
        <mxCell id="A88WUTj5RPN39O8uvwz5-2" value="Fsm And APM" style="ellipse;shape=cloud;whiteSpace=wrap;html=1;" vertex="1" parent="1">
          <mxGeometry x="305" y="910" width="240" height="160" as="geometry" />
        </mxCell>
        <mxCell id="A88WUTj5RPN39O8uvwz5-8" style="edgeStyle=orthogonalEdgeStyle;rounded=0;orthogonalLoop=1;jettySize=auto;html=1;entryX=0.507;entryY=0;entryDx=0;entryDy=0;entryPerimeter=0;dashed=1;" edge="1" parent="1" source="A88WUTj5RPN39O8uvwz5-3" target="A88WUTj5RPN39O8uvwz5-5">
          <mxGeometry relative="1" as="geometry" />
        </mxCell>
        <mxCell id="A88WUTj5RPN39O8uvwz5-3" value="kafka-reader" style="whiteSpace=wrap;html=1;aspect=fixed;" vertex="1" parent="1">
          <mxGeometry x="365" y="190" width="120" height="120" as="geometry" />
        </mxCell>
        <mxCell id="A88WUTj5RPN39O8uvwz5-5" value="&lt;div&gt;Seda-Queue&lt;/div&gt;&lt;div&gt;{seda.queue.size} &lt;br&gt;&lt;/div&gt;" style="shape=cube;whiteSpace=wrap;html=1;boundedLbl=1;backgroundOutline=1;darkOpacity=0.05;darkOpacity2=0.1;" vertex="1" parent="1">
          <mxGeometry x="40" y="400" width="760" height="130" as="geometry" />
        </mxCell>
        <mxCell id="A88WUTj5RPN39O8uvwz5-26" style="edgeStyle=orthogonalEdgeStyle;rounded=0;orthogonalLoop=1;jettySize=auto;html=1;entryX=0.113;entryY=0.725;entryDx=0;entryDy=0;entryPerimeter=0;dashed=1;endArrow=block;endFill=1;" edge="1" parent="1" source="A88WUTj5RPN39O8uvwz5-10" target="A88WUTj5RPN39O8uvwz5-2">
          <mxGeometry relative="1" as="geometry">
            <Array as="points">
              <mxPoint x="100" y="1026" />
            </Array>
          </mxGeometry>
        </mxCell>
        <mxCell id="A88WUTj5RPN39O8uvwz5-10" value="&lt;div&gt;Validate&lt;/div&gt;&lt;div&gt;convert to pojo&lt;/div&gt;&lt;div&gt;&lt;br&gt;&lt;/div&gt;&lt;div&gt;send to upstreram&lt;/div&gt;" style="rounded=0;whiteSpace=wrap;html=1;" vertex="1" parent="1">
          <mxGeometry x="40" y="600" width="120" height="120" as="geometry" />
        </mxCell>
        <mxCell id="A88WUTj5RPN39O8uvwz5-15" style="edgeStyle=orthogonalEdgeStyle;rounded=0;orthogonalLoop=1;jettySize=auto;html=1;dashed=1;endArrow=none;endFill=0;" edge="1" parent="1">
          <mxGeometry relative="1" as="geometry">
            <mxPoint x="480" y="640" as="sourcePoint" />
            <mxPoint x="680" y="640" as="targetPoint" />
          </mxGeometry>
        </mxCell>
        <mxCell id="A88WUTj5RPN39O8uvwz5-16" value="&lt;div&gt;{seda.concurrent.counsumers}&lt;/div&gt;&lt;div&gt;processc each PushNotification Dto&lt;br&gt;&lt;/div&gt;" style="text;html=1;strokeColor=none;fillColor=none;align=center;verticalAlign=middle;whiteSpace=wrap;rounded=0;" vertex="1" parent="1">
          <mxGeometry x="520" y="580" width="120" height="50" as="geometry" />
        </mxCell>
        <mxCell id="A88WUTj5RPN39O8uvwz5-25" style="edgeStyle=orthogonalEdgeStyle;rounded=0;orthogonalLoop=1;jettySize=auto;html=1;entryX=0.25;entryY=0.25;entryDx=0;entryDy=0;entryPerimeter=0;dashed=1;endArrow=block;endFill=1;" edge="1" parent="1" source="A88WUTj5RPN39O8uvwz5-17" target="A88WUTj5RPN39O8uvwz5-2">
          <mxGeometry relative="1" as="geometry">
            <Array as="points">
              <mxPoint x="260" y="950" />
            </Array>
          </mxGeometry>
        </mxCell>
        <mxCell id="A88WUTj5RPN39O8uvwz5-17" value="&lt;div&gt;Validate&lt;/div&gt;&lt;div&gt;convert to pojo&lt;/div&gt;&lt;div&gt;&lt;br&gt;&lt;/div&gt;&lt;div&gt;send to upstreram&lt;/div&gt;" style="rounded=0;whiteSpace=wrap;html=1;" vertex="1" parent="1">
          <mxGeometry x="200" y="600" width="120" height="120" as="geometry" />
        </mxCell>
        <mxCell id="A88WUTj5RPN39O8uvwz5-24" style="edgeStyle=orthogonalEdgeStyle;rounded=0;orthogonalLoop=1;jettySize=auto;html=1;dashed=1;endArrow=block;endFill=1;" edge="1" parent="1" source="A88WUTj5RPN39O8uvwz5-18">
          <mxGeometry relative="1" as="geometry">
            <mxPoint x="420" y="920" as="targetPoint" />
          </mxGeometry>
        </mxCell>
        <mxCell id="A88WUTj5RPN39O8uvwz5-18" value="&lt;div&gt;Validate&lt;/div&gt;&lt;div&gt;convert to pojo&lt;/div&gt;&lt;div&gt;&lt;br&gt;&lt;/div&gt;&lt;div&gt;send to upstreram&lt;/div&gt;" style="rounded=0;whiteSpace=wrap;html=1;" vertex="1" parent="1">
          <mxGeometry x="360" y="600" width="120" height="120" as="geometry" />
        </mxCell>
        <mxCell id="A88WUTj5RPN39O8uvwz5-23" style="edgeStyle=orthogonalEdgeStyle;rounded=0;orthogonalLoop=1;jettySize=auto;html=1;entryX=0.875;entryY=0.5;entryDx=0;entryDy=0;entryPerimeter=0;dashed=1;endArrow=block;endFill=1;" edge="1" parent="1" source="A88WUTj5RPN39O8uvwz5-19" target="A88WUTj5RPN39O8uvwz5-2">
          <mxGeometry relative="1" as="geometry">
            <Array as="points">
              <mxPoint x="740" y="990" />
            </Array>
          </mxGeometry>
        </mxCell>
        <mxCell id="A88WUTj5RPN39O8uvwz5-19" value="&lt;div&gt;Validate&lt;/div&gt;&lt;div&gt;convert to pojo&lt;/div&gt;&lt;div&gt;&lt;br&gt;&lt;/div&gt;&lt;div&gt;send to upstreram&lt;/div&gt;" style="rounded=0;whiteSpace=wrap;html=1;" vertex="1" parent="1">
          <mxGeometry x="680" y="600" width="120" height="120" as="geometry" />
        </mxCell>
      </root>
    </mxGraphModel>
  </diagram>
</mxfile>
